#N canvas 577 147 533 555 12;
#X obj 104 190 pparp, f 19;
#X obj 241 128 unpack;
#X msg 203 86 60 100;
#X obj 32 61 metro 300;
#X obj 37 24 tgl 15 0 empty empty empty 17 7 0 10 #fcfcfc #000000 #000000
0 1;
#X msg 262 84 60 0;
#X msg 167 34 62 100;
#X msg 281 51 62 0;
#X obj 113 257 makenote, f 20;
#X connect 0 0 8 0;
#X connect 1 0 0 1;
#X connect 1 1 0 2;
#X connect 2 0 1 0;
#X connect 3 0 0 0;
#X connect 4 0 3 0;
#X connect 5 0 1 0;
#X connect 6 0 1 0;
#X connect 7 0 1 0;
